/vscmnt/brussel_pixiu_data/_data_brussel/112/vsc11236/PredSimResults/SUBJ07mtu3D/worker1.mot
version=1
nRows=9
nColumns=50
inDegrees=yes
endheader
                time	         pelvis_tilt	         pelvis_list	     pelvis_rotation	           pelvis_tx	           pelvis_ty	           pelvis_tz	       hip_flexion_r	     hip_adduction_r	      hip_rotation_r	        knee_angle_r	       ankle_angle_r	         mtp_angle_r	       hip_flexion_l	     hip_adduction_l	      hip_rotation_l	        knee_angle_l	       ankle_angle_l	         mtp_angle_l	    lumbar_extension	      lumbar_bending	     lumbar_rotation	 ercspn_r/activation	 intobl_r/activation	 extobl_r/activation	    abd_r/activation	    add_r/activation	hamstrings_r/activation	bifemsh_r/activation	glut_max_r/activation	iliopsoas_r/activation	rect_fem_r/activation	  vasti_r/activation	gastroc_r/activation	 soleus_r/activation	tib_ant_r/activation	 ercspn_l/activation	 intobl_l/activation	 extobl_l/activation	    abd_l/activation	    add_l/activation	hamstrings_l/activation	bifemsh_l/activation	glut_max_l/activation	iliopsoas_l/activation	rect_fem_l/activation	  vasti_l/activation	gastroc_l/activation	 soleus_l/activation	tib_ant_l/activation	
          1.10073707	         -3.42192444	          0.32427211	          8.46141365	          1.34289922	          0.85117449	         -0.01286341	         29.77689485	         -2.51817033	         -4.25278008	         -8.08734065	          4.26358779	          0.26691671	        -14.82696558	          0.67504373	          3.70625056	         -9.47622116	          8.03030210	         27.77266453	        -11.74572894	         -1.99044235	         -1.19068525	          0.12773801	          0.13396718	          0.00999999	          0.02155457	          0.13742968	          0.05673466	          0.09265678	          0.08570818	          0.02817540	          0.01183455	          0.00999999	          0.00999999	          0.00999999	          0.37328115	          0.13563080	          0.00999999	          0.00999999	          0.03376587	          0.01550061	          0.01521349	          0.12708144	          0.01794450	          0.18120992	          0.01183455	          0.01183455	          0.14154404	          0.27923051	          0.01788064	
          1.11174444	         -3.41267937	          0.38532330	          8.44172417	          1.35871685	          0.84962457	         -0.01259224	         29.51364040	         -2.29995495	         -3.80884124	         -9.49137222	          3.94805744	          0.24849702	        -15.35471603	          0.62376475	          3.35050327	        -10.44454237	          7.08213259	         29.30007991	        -11.61447912	         -1.62113573	         -1.43940442	          0.10793641	          0.12071286	          0.00999999	          0.01821324	          0.11612570	          0.05487958	          0.08467402	          0.13475379	          0.02380773	          0.00999999	          0.00999999	          0.01595316	          0.01183455	          0.40021303	          0.15087507	          0.00999999	          0.00999999	          0.02853157	          0.02959433	          0.01285514	          0.10738162	          0.01516279	          0.15311925	          0.00999999	          0.00999999	          0.11960226	          0.26098364	          0.01510883	
          1.12275181	         -3.39771630	          0.44374494	          8.37220856	          1.37466240	          0.84828120	         -0.01223725	         29.16998179	         -2.13077185	         -3.39393797	        -10.81710997	          3.58510698	          0.24474394	        -15.72102584	          0.58487990	          2.95284515	        -11.71875707	          6.03865765	         30.76263096	        -11.47967167	         -1.24878125	         -1.67909529	          0.14570271	          0.10200028	          0.00999999	          0.10516329	          0.13292802	          0.05085559	          0.08065760	          0.13331327	          0.02011712	          0.00999999	          0.00999999	          0.01348014	          0.00999999	          0.45793549	          0.16448682	          0.00999999	          0.00999999	          0.02410869	          0.02500670	          0.01086238	          0.09073561	          0.01281229	          0.12938312	          0.01000000	          0.00999999	          0.10106184	          0.23922703	          0.01276670	
          1.13375918	         -3.37873383	          0.51763576	          8.25631667	          1.39054768	          0.84730692	         -0.01178736	         28.83854041	         -1.98110037	         -3.06078135	        -12.14099623	          3.15886331	          0.22639635	        -15.85182571	          0.57683312	          2.52465361	        -13.39716081	          4.86898381	         32.10482642	        -11.36183845	         -0.89340968	         -1.90811250	          0.15287174	          0.08618847	          0.00999999	          0.14970650	          0.15623170	          0.04297209	          0.06815427	          0.15295960	          0.01699862	          0.00999999	          0.01000000	          0.01139049	          0.00999999	          0.47834599	          0.19859667	          0.00999999	          0.00999999	          0.02037142	          0.02540455	          0.01000005	          0.07667002	          0.01082617	          0.10932649	          0.00999999	          0.00999999	          0.08539551	          0.20859270	          0.01078764	
          1.14476655	         -3.35595274	          0.59888224	          8.10046008	          1.40624392	          0.84682365	         -0.01124872	         28.58179224	         -1.83807970	         -2.78594729	        -13.61338747	          2.93403070	          0.20865923	        -15.68210228	          0.58936158	          2.07271885	        -15.57094737	          3.59070521	         33.18260767	        -11.26832388	         -0.54768783	         -2.12537060	          0.16145385	          0.07282777	          0.00999999	          0.18319783	          0.17776407	          0.04173242	          0.05758918	          0.16835508	          0.01436354	          0.00999999	          0.03759597	          0.00999999	          0.00999999	          0.48491759	          0.22968454	          0.00999999	          0.00999999	          0.01721350	          0.05191683	          0.01000003	          0.06478484	          0.00999999	          0.09237900	          0.00999999	          0.00999999	          0.07215773	          0.17625723	          0.00999999	
          1.15577392	         -3.33120583	          0.68688593	          7.90565966	          1.42167087	          0.84694956	         -0.01063800	         28.35425160	         -1.70175607	         -2.56768807	        -15.13584126	          2.92516502	          0.18986407	        -15.14929778	          0.62160381	          1.58730851	        -18.32645708	          2.21566225	         33.79154581	        -11.20007751	         -0.21295421	         -2.32763391	          0.16443258	          0.06153820	          0.00999999	          0.20176826	          0.19512236	          0.04191948	          0.04866186	          0.17405804	          0.01213694	          0.00999999	          0.06718816	          0.00999999	          0.00999999	          0.46755646	          0.25077467	          0.00999999	          0.00999999	          0.01454511	          0.07945602	          0.01000001	          0.05474207	          0.00999999	          0.07805865	          0.00999999	          0.00999999	          0.06097203	          0.14893431	          0.00999999	
          1.16678129	         -3.30642086	          0.78086859	          7.67259069	          1.43680173	          0.84773067	         -0.00997359	         28.07579993	         -1.56776724	         -2.38872471	        -16.55741043	          3.13294434	          0.17587591	        -14.21234234	          0.66698049	          1.06893182	        -21.70606541	          0.70457107	         33.77556838	        -11.15244491	          0.11015841	         -2.51132654	          0.16028915	          0.05199872	          0.00999999	          0.20558340	          0.20270774	          0.04352840	          0.04111843	          0.17318803	          0.01025550	          0.00999999	          0.08673573	          0.00999999	          0.00999999	          0.43582216	          0.25587958	          0.00999999	          0.00999999	          0.01229037	          0.10169765	          0.01000002	          0.04625611	          0.00999999	          0.06595821	          0.00999999	          0.00999999	          0.05152031	          0.12584691	          0.00999999	
          1.17778866	         -3.28335807	          0.87709765	          7.40265025	          1.45163230	          0.84911773	         -0.00926706	         27.68721457	         -1.42845548	         -2.22255041	        -17.75801598	          3.50749927	          0.17393764	        -12.86351652	          0.71324425	          0.54320469	        -25.66206562	         -1.09109603	         33.13743177	        -11.12064960	          0.42392178	         -2.67362568	          0.13544156	          0.04393802	          0.00999999	          0.19913630	          0.20035297	          0.04999374	          0.03474437	          0.15907919	          0.00999999	          0.00999999	          0.11465653	          0.00999999	          0.00999999	          0.39471746	          0.26085295	          0.00999999	          0.00999999	          0.01038515	          0.11710564	          0.01000000	          0.03908561	          0.00999999	          0.05573355	          0.00999999	          0.00999999	          0.04353377	          0.10633846	          0.00999999	
          1.18879603	         -3.26404072	          0.97201249	          7.09650151	          1.46614576	          0.85101997	         -0.00851614	         27.14519372	         -1.27471218	         -2.03291119	        -18.64162059	          3.99036513	          0.20238286	        -11.12606912	          0.75297434	          0.05032106	        -30.08355934	         -3.23314305	         31.75290431	        -11.10528153	          0.72738046	         -2.81436827	          0.11444578	          0.03712686	          0.00999999	          0.19953331	          0.18576219	          0.05897209	          0.02935839	          0.13441917	          0.00999999	          0.00999999	          0.14095384	          0.00999999	          0.00999999	          0.35321802	          0.25350525	          0.00999999	          0.00999999	          0.00999999	          0.12799452	          0.01624841	          0.03302666	          0.00999999	          0.04709389	          0.00999999	          0.00999999	          0.03678529	          0.08985416	          0.03860301	
